<?xml version="1.0" encoding="UTF-8" standalone="no"?>
<svg
   xmlns:dc="http://purl.org/dc/elements/1.1/"
   xmlns:cc="http://creativecommons.org/ns#"
   xmlns:rdf="http://www.w3.org/1999/02/22-rdf-syntax-ns#"
   xmlns:svg="http://www.w3.org/2000/svg"
   xmlns="http://www.w3.org/2000/svg"
   xmlns:sodipodi="http://sodipodi.sourceforge.net/DTD/sodipodi-0.dtd"
   xmlns:inkscape="http://www.inkscape.org/namespaces/inkscape"
   inkscape:export-ydpi="96"
   inkscape:export-xdpi="96"
   inkscape:export-filename="D:\Repos\refregerator\sbs\masks\low_temp.png"
   sodipodi:docname="low_temp.svg"
   inkscape:version="1.0 (4035a4fb49, 2020-05-01)"
   id="svg1537"
   version="1.1"
   viewBox="0 0 132.29166 132.29167"
   height="500"
   width="500">
  <defs
     id="defs1531" />
  <sodipodi:namedview
     inkscape:window-maximized="1"
     inkscape:window-y="-8"
     inkscape:window-x="1912"
     inkscape:window-height="1177"
     inkscape:window-width="1920"
     units="px"
     showgrid="false"
     inkscape:document-rotation="0"
     inkscape:current-layer="layer1"
     inkscape:document-units="mm"
     inkscape:cy="231.00418"
     inkscape:cx="239.2566"
     inkscape:zoom="0.98994949"
     inkscape:pageshadow="2"
     inkscape:pageopacity="1"
     borderopacity="1.0"
     bordercolor="#666666"
     pagecolor="#000000"
     id="base" />
  <metadata
     id="metadata1534">
    <rdf:RDF>
      <cc:Work
         rdf:about="">
        <dc:format>image/svg+xml</dc:format>
        <dc:type
           rdf:resource="http://purl.org/dc/dcmitype/StillImage" />
        <dc:title></dc:title>
      </cc:Work>
    </rdf:RDF>
  </metadata>
  <g
     id="layer1"
     inkscape:groupmode="layer"
     inkscape:label="Layer 1">
    <path
       sodipodi:nodetypes="cscssssscccsssssssscccccssssscsssssscccsssscssssssssscsssssssssccccccssssssssssssscccscssscscsscscssssscccsssssssscccccsssssssscccssssssscsscssscccssssssssssssscccccssssssscccssssscscscc"
       id="path2114"
       d="m 65.67579,82.59872 c -0.215487,-0.15977 -0.243624,-0.668601 -0.276261,-4.996169 l -0.03634,-4.818275 -2.205966,2.612995 c -1.213281,1.437149 -2.718319,3.234589 -3.344528,3.994319 -0.626211,0.759731 -1.276699,1.42132 -1.44553,1.4702 -0.452295,0.13095 -0.902757,-0.165319 -0.902757,-0.59373 0,-0.355299 0.538197,-1.0267 6.3935,-7.975923 l 1.579088,-1.8741 -0.0369,-7.135541 -0.0369,-7.135542 -1.935275,2.320583 c -1.064401,1.276322 -2.476517,2.961027 -3.138036,3.743788 -3.239306,3.833007 -7.363848,8.745034 -7.78661,9.273278 -0.66365,0.829233 -1.258275,0.92375 -1.565768,0.248875 -0.0892,-0.195734 -0.162145,-0.383595 -0.162145,-0.417467 0,-0.03387 0.846188,-1.07158 1.880417,-2.306011 2.041897,-2.437165 6.870252,-8.17758 7.924907,-9.421898 0.360374,-0.425184 1.598797,-1.898199 2.752052,-3.273369 l 2.096829,-2.500312 0.0024,-3.308948 0.0024,-3.308948 -3.38011,0.0025 -3.380109,0.0025 -4.269613,3.557169 c -4.992094,4.159096 -5.901989,4.923968 -7.088857,5.959005 -0.484597,0.422604 -1.180909,0.985848 -1.547363,1.251654 -0.366454,0.265806 -0.686675,0.528458 -0.711601,0.583672 -0.02492,0.05522 -0.5897,0.547495 -1.255047,1.093957 -0.665348,0.546463 -1.241746,1.026904 -1.280884,1.067645 -0.447496,0.465848 -1.204052,0.998683 -1.41799,0.998683 -0.371871,0 -0.716816,-0.379286 -0.716816,-0.788182 0,-0.26421 0.376172,-0.642569 1.672264,-1.681996 0.919747,-0.737609 1.896421,-1.539313 2.170386,-1.781568 1.007131,-0.89055 3.839305,-3.290318 6.333257,-5.36632 1.408973,-1.172848 3.284152,-2.738827 4.167067,-3.479952 l 1.6053,-1.347503 -7.134905,-0.03691 -7.134904,-0.0369 -3.812679,3.167953 c -6.194801,5.147257 -5.84533,4.885681 -6.243026,4.67284 -0.345355,-0.184829 -0.451743,-0.599159 -0.249738,-0.972614 0.08741,-0.161591 1.909517,-1.756419 4.04914,-3.544079 l 3.890226,-3.250291 -4.758079,-0.07115 c -5.06315,-0.07572 -5.228339,-0.100101 -5.228339,-0.771726 0,-0.641368 0.08015,-0.651479 5.16386,-0.651479 2.656973,0 4.800986,-0.05531 4.774847,-0.123181 -0.02609,-0.06774 -1.856687,-1.639145 -4.067991,-3.491989 -2.211312,-1.852822 -4.020561,-3.466748 -4.020561,-3.586482 0,-0.442664 0.292519,-0.768266 0.690202,-0.768266 0.277852,0 0.709287,0.264672 1.449963,0.889504 0.57993,0.489225 2.721283,2.28244 4.758561,3.984921 l 3.704144,3.095418 7.092299,4.9e-5 c 3.900766,2.7e-5 7.070953,-0.0548 7.04486,-0.121818 -0.02609,-0.06702 -1.296301,-1.165258 -2.822688,-2.44051 -1.526386,-1.275249 -4.27523,-3.574033 -6.108538,-5.108403 -1.833311,-1.534369 -4.138902,-3.463317 -5.123535,-4.286551 -1.97299,-1.649579 -2.209793,-2.039869 -1.514194,-2.49564 0.324615,-0.212698 0.39935,-0.215842 0.684614,-0.02879 0.345542,0.226576 1.329839,1.042559 8.726524,7.234298 2.656221,2.223515 5.693497,4.763812 6.749499,5.64511 l 1.920005,1.602358 h 3.310269 3.31027 l -0.0061,-3.380109 -0.0061,-3.38011 -2.283347,-2.704087 C 61.882968,34.821931 60.39167,33.060716 59.824816,32.39537 59.257959,31.730021 58.382859,30.683398 57.880148,30.069539 56.585353,28.488465 55.245845,26.88945 53.185582,24.465491 50.626517,21.454678 50.67849,21.534326 50.976333,21.07976 c 0.446459,-0.681381 0.850432,-0.459408 2.333144,1.282021 0.733118,0.861038 1.535556,1.828606 1.783196,2.150153 0.247641,0.321545 1.183558,1.435842 2.079819,2.476212 0.896262,1.04037 1.760859,2.070637 1.921326,2.289482 0.160463,0.218844 0.676025,0.837639 1.145683,1.375101 0.469657,0.537463 1.110099,1.288861 1.423204,1.669776 0.313104,0.380915 0.633325,0.761282 0.711602,0.845259 0.07828,0.08398 0.622652,0.728988 1.209724,1.43336 0.587071,0.70437 1.243229,1.472901 1.458125,1.707846 l 0.390723,0.42717 7.13e-4,-7.136 6.01e-4,-7.136001 -3.983299,-4.747753 c -2.584781,-3.080839 -3.983886,-4.859027 -3.984971,-5.064691 -10e-4,-0.182297 0.149486,-0.415979 0.354129,-0.550069 0.317357,-0.20794 0.390402,-0.210265 0.676021,-0.02152 0.176122,0.116389 1.761215,1.944792 3.522431,4.063124 1.761215,2.118334 3.250242,3.855735 3.308949,3.860891 0.0587,0.0052 0.10674,-2.13463 0.10674,-4.755078 v -4.764469 l 0.3558,-0.233131 c 0.329596,-0.215958 0.382008,-0.215958 0.711603,0 l 0.3558,0.233131 v 4.764452 c 0,2.620448 0.04803,4.760234 0.106741,4.755077 0.05871,-0.0052 1.547734,-1.742557 3.308949,-3.860891 1.761215,-2.118332 3.346308,-3.946738 3.522429,-4.063124 0.285621,-0.188745 0.358667,-0.186419 0.676024,0.02152 0.204648,0.134089 0.35509,0.367772 0.354129,0.550069 -0.0011,0.205664 -1.400191,1.983852 -3.984972,5.064691 l -3.9833,4.747754 0.0034,7.136001 0.0034,7.136 0.459236,-0.514084 c 0.252583,-0.282746 1.044443,-1.211387 1.759692,-2.063645 0.71525,-0.852259 2.028156,-2.405845 2.91757,-3.452415 1.542428,-1.814971 2.694908,-3.189867 4.25053,-5.070846 4.254082,-5.143819 4.521222,-5.384119 5.064229,-4.555391 0.302964,0.462384 0.440568,0.263327 -2.952293,4.27075 -1.391716,1.6438 -2.676515,3.164668 -2.855108,3.379707 -2.197867,2.646362 -3.416041,4.09921 -6.354765,7.578963 l -2.283654,2.704088 -0.0061,3.380109 -0.0061,3.38011 h 3.309097 3.309091 l 1.49422,-1.248122 c 0.821821,-0.686471 3.851647,-3.22012 6.732948,-5.630336 8.011212,-6.701404 8.826297,-7.377149 9.171207,-7.603308 0.285269,-0.187052 0.360001,-0.183909 0.684619,0.02879 0.695599,0.455772 0.45879,0.846062 -1.5142,2.495639 -0.984628,0.823235 -3.290217,2.752183 -5.123529,4.286552 -1.83331,1.53437 -4.582152,3.833153 -6.10854,5.108402 -1.526385,1.275254 -2.796594,2.373483 -2.822686,2.440512 -0.02609,0.06704 3.144093,0.121768 7.044859,0.121649 l 7.092299,-2.85e-4 3.842647,-3.216384 c 5.676299,-4.751136 5.678751,-4.753045 6.102995,-4.753045 0.40631,0 0.7625,0.516627 0.61721,0.895246 -0.0427,0.110994 -1.860268,1.691701 -4.039266,3.512697 -2.179001,1.820997 -3.983166,3.367399 -4.009263,3.436451 -0.02678,0.07099 2.048495,0.125551 4.774858,0.125551 5.083711,0 5.163851,0.01009 5.163851,0.65148 0,0.671633 -0.16512,0.695999 -5.229395,0.771725 l -4.759135,0.07115 4.004104,3.343981 c 2.630271,2.19664 4.033786,3.462277 4.090636,3.688761 0.0638,0.254523 8.3e-4,0.413873 -0.23939,0.608706 -0.4316,0.34948 -0.745535,0.235858 -1.709469,-0.618686 -0.430524,-0.381661 -2.255773,-1.915819 -4.056131,-3.409244 -1.800358,-1.493421 -3.536872,-2.934019 -3.858928,-3.201323 l -0.585557,-0.486008 -7.139518,0.03691 -7.139517,0.03691 1.605301,1.346834 c 0.882913,0.740758 2.557075,2.149729 3.72036,3.131049 2.517856,2.124007 4.076162,3.42215 5.427918,4.521731 0.547933,0.445715 1.188375,0.992685 1.423204,1.215488 0.234828,0.222808 1.179479,1.011757 2.099225,1.753224 1.461684,1.178357 1.672264,1.401732 1.672264,1.773859 0,0.326048 -0.08548,0.458238 -0.365069,0.564537 -0.200786,0.07634 -0.41863,0.138796 -0.484099,0.138796 -0.12437,0 -1.402901,-1.059115 -3.822674,-3.166629 -0.786396,-0.684916 -1.492598,-1.245303 -1.569334,-1.245303 -0.07673,0 -0.160866,-0.04803 -0.18696,-0.10674 -0.04623,-0.104001 -2.616407,-2.297151 -4.225879,-3.605957 -0.441526,-0.359047 -2.339836,-1.943317 -4.218465,-3.520603 l -3.415689,-2.867791 -3.380109,-0.0018 -3.380111,-0.0019 0.0024,3.308949 0.0024,3.308949 2.096828,2.50031 c 1.153253,1.37517 2.391679,2.848186 2.752052,3.273369 1.055725,1.245582 5.883771,6.985644 7.931201,9.429405 1.90636,2.27538 2.032304,2.513581 1.584159,2.996136 -0.231497,0.249273 -0.900106,0.127602 -1.173081,-0.21348 -0.264991,-0.331106 -5.484063,-6.547588 -7.986073,-9.512287 -0.695993,-0.824815 -2.136987,-2.543969 -3.202071,-3.82029 l -1.936528,-2.320583 -0.0369,7.135543 -0.03691,7.13554 1.579086,1.8741 c 5.855303,6.949222 6.393502,7.620623 6.393502,7.975922 0,0.42841 -0.450465,0.72468 -0.902759,0.59373 -0.168831,-0.0489 -0.819318,-0.71047 -1.445529,-1.4702 -0.626209,-0.75973 -2.131248,-2.55717 -3.344529,-3.994317 l -2.205965,-2.612995 -0.03634,4.818272 c -0.03264,4.32757 -0.06076,4.83639 -0.276262,4.99617 -0.131955,0.0979 -0.343527,0.1779 -0.470158,0.1779 -0.126626,0 -0.338202,-0.08 -0.470158,-0.1779 z"
       style="fill:#ffffff;stroke:#ffffff;stroke-width:1.5;stroke-miterlimit:4;stroke-dasharray:none;stroke-opacity:1;fill-opacity:1" />
    <text
       id="text2118"
       y="102.63081"
       x="65.731094"
       style="font-style:normal;font-variant:normal;font-weight:normal;font-stretch:normal;font-size:11.2866px;line-height:1.25;font-family:Teko;-inkscape-font-specification:Teko;text-align:center;text-anchor:middle;fill:#ffffff;fill-opacity:1;stroke-width:0.282166"
       xml:space="preserve"><tspan
         style="font-style:normal;font-variant:normal;font-weight:normal;font-stretch:normal;font-family:Teko;-inkscape-font-specification:Teko;text-align:center;text-anchor:middle;fill:#ffffff;fill-opacity:1;stroke-width:0.282166"
         y="102.63081"
         x="65.731094"
         id="tspan2116"
         sodipodi:role="line">Beware!</tspan><tspan
         id="tspan2120"
         style="font-style:normal;font-variant:normal;font-weight:normal;font-stretch:normal;font-family:Teko;-inkscape-font-specification:Teko;text-align:center;text-anchor:middle;fill:#ffffff;fill-opacity:1;stroke-width:0.282166"
         y="116.73907"
         x="65.731094"
         sodipodi:role="line">low temperature!</tspan></text>
  </g>
</svg>
